<svg width="25" height="25" viewBox="0 0 25 25" fill="none" xmlns="http://www.w3.org/2000/svg">
<path d="M12.2368 2.31042C10.259 2.31042 8.32561 2.89691 6.68112 3.99573C5.03663 5.09454 3.7549 6.65633 2.99803 8.48359C2.24115 10.3109 2.04312 12.3215 2.42897 14.2613C2.81482 16.2011 3.76723 17.983 5.16575 19.3815C6.56428 20.78 8.34611 21.7324 10.2859 22.1183C12.2257 22.5041 14.2364 22.3061 16.0637 21.5492C17.8909 20.7923 19.4527 19.5106 20.5515 17.8661C21.6503 16.2216 22.2368 14.2882 22.2368 12.3104C22.2368 10.9972 21.9782 9.69685 21.4756 8.48359C20.9731 7.27033 20.2365 6.16794 19.3079 5.23936C18.3793 4.31077 17.2769 3.57418 16.0637 3.07163C14.8504 2.56908 13.55 2.31042 12.2368 2.31042V2.31042ZM12.2368 20.3104C10.6546 20.3104 9.10785 19.8412 7.79226 18.9622C6.47667 18.0831 5.45129 16.8337 4.84578 15.3719C4.24028 13.9101 4.08186 12.3016 4.39054 10.7497C4.69922 9.19785 5.46115 7.77239 6.57997 6.65357C7.69879 5.53475 9.12425 4.77282 10.6761 4.46414C12.2279 4.15546 13.8365 4.31389 15.2983 4.91939C16.7601 5.52489 18.0095 6.55027 18.8886 7.86586C19.7676 9.18146 20.2368 10.7282 20.2368 12.3104C20.2368 14.4322 19.394 16.467 17.8937 17.9673C16.3934 19.4676 14.3586 20.3104 12.2368 20.3104V20.3104Z" fill="black"/>
</svg>
