<svg width="24" height="24" viewBox="0 0 24 24" fill="none" xmlns="http://www.w3.org/2000/svg">
<path d="M19.891 7.788C20.614 9.11044 20.992 10.5938 20.99 12.101C20.9904 13.6742 20.5777 15.22 19.7933 16.5837C19.0089 17.9475 17.8801 19.0814 16.52 19.872L19.266 11.933C19.779 10.651 19.95 9.624 19.95 8.714C19.9504 8.40438 19.9307 8.09507 19.891 7.788ZM13.24 7.875C13.583 7.85813 13.9252 7.82878 14.266 7.787C14.751 7.724 14.694 7.012 14.21 7.038C14.21 7.038 12.747 7.15 11.81 7.15C10.923 7.15 9.435 7.025 9.435 7.025C8.948 7.001 8.885 7.738 9.374 7.763C9.374 7.763 9.823 7.815 10.312 7.838L11.711 11.676L9.736 17.575L6.462 7.851C6.80543 7.83373 7.14825 7.80605 7.49 7.768C7.977 7.705 7.92 6.993 7.435 7.021C7.435 7.021 5.98 7.136 5.04 7.136C4.873 7.136 4.675 7.129 4.465 7.123C6.093 4.726 8.862 3.113 12 3.113C14.341 3.113 16.471 4.007 18.071 5.473C18.033 5.471 17.995 5.465 17.954 5.465C17.071 5.465 16.444 6.235 16.444 7.061C16.444 7.802 16.871 8.43 17.327 9.169C17.67 9.77 18.069 10.539 18.069 11.65C18.069 12.413 17.774 13.312 17.384 14.549L16.488 17.536L13.238 7.861L13.24 7.875ZM12 21.087C11.1403 21.0878 10.2849 20.9653 9.46 20.723L12.157 12.885L14.92 20.457C14.941 20.501 14.962 20.542 14.985 20.581C14.0258 20.9174 13.0165 21.0892 12 21.089V21.087ZM3.01 12.101C3.00854 10.8405 3.27368 9.59385 3.788 8.443L8.075 20.192C6.55646 19.4547 5.27611 18.3048 4.38039 16.874C3.48468 15.4431 3.00977 13.7891 3.01 12.101ZM12 2.101C6.487 2.101 2 6.588 2 12.101C2 17.614 6.487 22.101 12 22.101C17.513 22.101 22 17.614 22 12.101C22 6.588 17.513 2.101 12 2.101Z" fill="black"/>
</svg>
